# xmcd CD database file
#
# Track frame offsets:
#	151
#	35612
#	70060
#	120560
#	144898
#	184981
#	218810
#	246888
#
# Disc length: 3673 seconds
#
# Revision: 0
# Processed by: cddbd v1.5.2PL0 Copyright (c) Steve Scherf et al.
# Submitted via: CDex 1.70beta2
#
DISCID=710e5708
DTITLE=Roy Powell - North by Northwest
DYEAR=1900
DGENRE=Jazz
TTITLE0=Social Intelligence
TTITLE1=Paws
TTITLE2=Vemod
TTITLE3=Borrowed Time
TTITLE4=Oxymoron
TTITLE5=Somewhere
TTITLE6=Scramble
TTITLE7=A Simple Answer
EXTD=
EXTT0=
EXTT1=
EXTT2=
EXTT3=
EXTT4=
EXTT5=
EXTT6=
EXTT7=
PLAYORDER=
